<svg id="svg" version="1.1" xmlns="http://www.w3.org/2000/svg" xmlns:xlink="http://www.w3.org/1999/xlink" width="400" height="400" viewBox="0, 0, 400,400"><g id="svgg"><path id="path0" d="M134.867 18.002 C 99.267 25.743,28.349 65.976,15.249 85.863 C -5.813 117.837,-5.072 159.670,17.139 192.578 C 23.026 201.301,24.823 205.980,25.759 215.023 C 27.891 235.636,47.716 246.240,63.333 235.119 L 65.625 233.487 65.635 263.423 C 65.644 289.545,65.831 294.257,67.100 300.404 C 74.067 334.161,104.181 358.535,138.979 358.583 L 146.318 358.594 152.681 364.648 C 180.376 391.003,226.926 389.640,250.966 361.770 L 253.516 358.815 263.672 358.373 C 295.580 356.986,321.762 337.508,331.226 308.117 C 334.583 297.691,335.156 290.850,335.156 261.191 L 335.156 234.450 339.210 236.553 C 355.240 244.870,372.226 234.548,374.214 215.283 C 375.169 206.022,376.668 201.963,382.223 193.587 C 402.639 162.806,405.672 131.233,391.377 98.275 C 383.513 80.143,377.514 74.212,351.043 58.396 C 310.328 34.070,292.115 25.239,269.645 18.930 L 262.109 16.815 201.953 16.655 C 145.113 16.504,141.415 16.578,134.867 18.002 M259.910 41.753 C 278.217 45.631,297.180 54.689,337.466 78.799 C 361.292 93.059,364.688 96.381,370.197 110.825 C 379.988 136.496,377.472 156.683,361.507 180.563 C 354.683 190.769,350.000 203.594,350.000 212.076 C 350.000 214.623,349.209 214.584,346.756 211.914 C 338.247 202.651,335.394 192.102,334.344 166.016 C 332.716 125.562,322.923 98.386,307.422 91.305 C 294.311 85.317,284.869 100.703,294.846 111.799 C 309.163 127.723,310.914 141.359,310.894 236.719 C 310.881 294.958,310.794 296.076,305.379 307.004 C 288.211 341.651,236.844 343.204,218.943 309.618 C 215.777 303.679,215.740 303.980,219.980 301.172 C 233.704 292.083,241.271 269.067,235.022 255.418 C 224.355 232.120,176.523 231.772,165.579 254.913 C 158.941 268.950,166.978 293.172,181.089 301.655 C 182.681 302.613,184.106 303.486,184.255 303.596 C 185.317 304.381,178.423 314.604,173.464 319.598 C 147.496 345.743,104.045 335.294,91.972 300.000 C 89.927 294.023,88.814 173.802,90.610 152.908 C 92.156 134.929,96.929 120.797,104.159 112.798 C 113.263 102.724,109.590 90.637,97.422 90.628 C 80.274 90.615,67.430 121.074,65.648 165.978 C 64.611 192.094,61.764 202.639,53.244 211.914 C 50.526 214.872,50.254 214.694,49.655 209.570 C 48.352 198.424,45.087 190.127,37.841 179.546 C 21.474 155.647,19.578 131.988,31.995 106.566 C 38.019 94.232,40.438 92.039,62.648 78.778 C 102.198 55.164,121.764 45.750,139.453 41.823 C 146.627 40.230,252.431 40.169,259.910 41.753 M135.089 192.934 C 122.056 196.884,124.612 216.392,138.163 216.403 C 150.999 216.414,155.160 199.723,143.762 193.945 C 140.139 192.109,138.458 191.913,135.089 192.934 M255.859 193.382 C 254.141 194.001,252.659 194.513,252.567 194.519 C 251.142 194.620,248.438 201.017,248.440 204.283 C 248.448 215.084,260.973 220.642,268.452 213.162 C 277.874 203.740,268.403 188.863,255.859 193.382 M211.133 264.055 C 217.276 267.027,208.346 282.817,200.526 282.810 C 190.895 282.801,182.436 265.885,190.790 263.340 C 194.306 262.269,208.469 262.767,211.133 264.055 M211.547 339.144 C 214.005 341.400,218.550 344.876,221.648 346.868 L 227.280 350.490 222.919 353.133 C 210.020 360.951,194.004 361.485,179.950 354.566 C 172.633 350.964,172.615 350.795,179.113 346.674 C 185.198 342.815,193.786 334.803,197.742 329.294 L 200.192 325.882 203.635 330.462 C 205.529 332.981,209.089 336.888,211.547 339.144 " stroke="none" fill="#000000" fill-rule="evenodd"></path></g></svg>